<svg id="Capa_1" enable-background="new 0 0 511.895 511.895" height="40px" viewBox="0 0 511.895 511.895" width="50px" xmlns="http://www.w3.org/2000/svg"><g id="XMLID_76_"><g id="XMLID_998_"><path id="XMLID_1654_" d="m39.705 230.069c-39.677-39.677-39.677-104.005 0-143.682l.421-.421c39.677-39.677 104.005-39.677 143.682 0l.033.034c30.452 30.452 47.323 71.906 46.79 114.968-.319 25.816 10.342 50.553 29.327 68.049l138.5 127.633c14.216 13.101 14.671 35.401 1.001 49.07-13.67 13.67-35.97 13.215-49.07-1.001l-127.664-138.532c-17.479-18.967-42.288-29.626-68.079-29.328v.002c-43.017.497-84.521-16.372-114.941-46.792z" fill="#ffcd69"/></g><g id="XMLID_1879_"><path id="XMLID_1653_" d="m154.646 276.859v.002c-43.017.497-84.521-16.372-114.941-46.792-39.677-39.677-39.677-104.005 0-143.682l.421-.42c39.677-39.677 104.005-39.677 143.682 0l.033.033c30.452 30.452 47.323 71.906 46.79 114.968-.315 25.444 10.042 49.834 28.517 67.282l-37.159 37.159c-17.433-18.476-41.91-28.844-67.343-28.55z" fill="#33d6f5"/></g><g id="XMLID_1846_"><path id="XMLID_1650_" d="m196.458 100.231h-80.294v62.195h-62.195v80.288c12.942 10.17 27.313 18.234 42.58 23.964v-61.671h62.194v-62.195h61.693c-5.733-15.268-13.802-29.639-23.978-42.581z" fill="#ff7d97"/></g><g id="XMLID_1877_"><g id="XMLID_1878_"><path id="XMLID_1649_" d="m251.937 269.017-138.5 127.633c-14.216 13.101-14.671 35.4-1.001 49.07 13.67 13.67 35.97 13.215 49.07-1.001l127.664-138.533c.242-.263.491-.518.736-.778l-37.159-37.159c-.27.257-.536.516-.81.768z" fill="#ffda8f"/></g><g id="XMLID_1880_"><path id="XMLID_102_" d="m357.249 276.859v.002c43.017.497 84.521-16.372 114.941-46.792 39.676-39.677 39.676-104.005 0-143.682l-.421-.42c-39.676-39.677-104.005-39.677-143.681 0l-.033.033c-30.452 30.452-47.323 71.906-46.79 114.968.315 25.444-10.042 49.834-28.517 67.282l37.159 37.159c17.432-18.476 41.91-28.844 67.342-28.55z" fill="#99ebfa"/></g></g><g id="XMLID_991_"><path id="XMLID_94_" d="m315.437 100.231h80.294v62.195h62.194v80.288c-12.942 10.17-27.313 18.234-42.58 23.964v-61.671h-62.195v-62.195h-61.693c5.736-15.268 13.805-29.639 23.98-42.581z" fill="#ff9eb1"/></g><g id="XMLID_1655_"><path id="XMLID_95_" d="m356.84 286.858c44.817-.002 90.753-18.05 122.422-49.718 43.512-43.512 43.512-114.312-.004-157.828l-.417-.416c-21.078-21.079-49.103-32.687-78.912-32.687s-57.833 11.608-78.945 32.719c-32.159 32.159-50.281 76.686-49.718 122.163.216 17.472-5.255 34.438-15.325 48.405-10.144-14.003-15.528-30.826-15.31-48.405.563-45.477-17.559-90.003-49.751-122.196-21.08-21.077-49.104-32.685-78.913-32.685s-57.834 11.608-78.908 32.682l-.425.425c-43.512 43.512-43.512 114.312 0 157.824 32.124 32.123 76.676 50.254 122.128 49.72.07-.001.141-.003.21-.005 17.013-.13 33.373 4.956 47.098 14.518l-10.266 9.461c-4.061 3.743-4.319 10.069-.577 14.13 3.742 4.06 10.068 4.319 14.13.577l46.304-42.671 23.625 23.626-121.133 131.446c-4.474 4.854-10.572 7.602-17.172 7.736-6.612.152-12.806-2.361-17.474-7.03-4.668-4.667-7.165-10.873-7.03-17.473.134-6.6 2.882-12.699 7.737-17.173l17.698-16.309c4.061-3.743 4.319-10.069.577-14.13-3.743-4.061-10.069-4.319-14.13-.577l-17.698 16.309c-8.896 8.199-13.932 19.375-14.179 31.472-.247 12.096 4.329 23.469 12.883 32.024 8.336 8.335 19.346 12.893 31.095 12.893.309 0 .62-.003.93-.009 12.096-.247 23.272-5.283 31.471-14.179l87.087-94.502 87.087 94.501c8.198 8.897 19.375 13.933 31.471 14.18.311.006.62.009.93.009 11.748 0 22.759-4.558 31.095-12.893 8.555-8.555 13.13-19.928 12.883-32.024s-5.283-23.273-14.179-31.472l-95.396-87.911c13.617-9.458 30.091-14.622 46.997-14.528.002.001.001.001.004.001zm-312.871-124.432v57.619c-32.869-35.895-31.941-91.837 2.803-126.582l.425-.425c17.3-17.3 40.303-26.828 64.77-26.828 23.092 0 44.873 8.495 61.821 24.021h-57.624c-5.523 0-10 4.477-10 10v52.194h-52.195c-5.523.001-10 4.478-10 10.001zm42.581 42.58v46.382c-7.897-3.879-15.461-8.445-22.581-13.66v-65.303h52.195c5.523 0 10-4.477 10-10v-52.194h65.315c5.219 7.12 9.789 14.684 13.671 22.58h-46.406c-5.523 0-10 4.477-10 10v52.195h-52.194c-5.523 0-10 4.477-10 10zm130.517 82.547c-17.875-13.661-39.746-20.955-62.537-20.694-.072.001-.143.003-.215.005-16.298.166-32.442-2.378-47.765-7.356v-44.502h52.194c5.523 0 10-4.477 10-10v-52.195h44.529c5.013 15.415 7.561 31.653 7.358 48.033-.288 23.288 7.294 45.521 21.518 63.595zm139.79-.695c-.009-.001-.065-.002-.017-.002.03.001.036.002.017.002zm43.072-220.648c24.467 0 47.469 9.528 64.774 26.832l.417.417c34.749 34.748 35.676 90.691 2.807 126.586v-57.619c0-5.523-4.477-10-10-10h-52.195v-52.194c0-5.523-4.477-10-10-10h-57.625c16.924-15.516 38.717-24.022 61.822-24.022zm-79.507 44.021h65.31v52.194c0 5.523 4.477 10 10 10h52.195v65.297c-7.119 5.211-14.684 9.773-22.581 13.65v-46.366c0-5.523-4.477-10-10-10h-52.194v-52.195c0-5.523-4.477-10-10-10h-46.402c3.881-7.894 8.452-15.457 13.672-22.58zm71.259 293.773c4.854 4.474 7.603 10.572 7.737 17.173.135 6.6-2.362 12.806-7.03 17.473-4.667 4.668-10.871 7.155-17.474 7.03-6.6-.135-12.698-2.882-17.172-7.737l-88.196-95.704 25.309-27.463zm-102.447-111.845-23.237-23.237c16.467-18.675 25.577-42.959 25.267-68.078-.203-16.379 2.345-32.617 7.36-48.033h44.528v52.195c0 5.523 4.477 10 10 10h52.194v44.482c-15.334 4.982-31.483 7.531-47.768 7.376-.071-.002-.142-.004-.213-.005-25.125-.284-49.458 8.834-68.131 25.3z"/><path id="XMLID_1677_" d="m171.928 356.337c1.86-1.86 2.93-4.44 2.93-7.07s-1.07-5.21-2.93-7.07-4.44-2.93-7.07-2.93-5.21 1.07-7.07 2.93-2.93 4.44-2.93 7.07 1.07 5.21 2.93 7.07 4.44 2.93 7.07 2.93 5.209-1.07 7.07-2.93z"/></g></g></svg>